# xmcd
#
# Track frame offsets: 
#        150
#        47270
#        68088
#        137043
#        181436
#        212923
#        240059
#        309611
#
# Disc length: 4454 seconds
#
# Revision: 0
# Processed by: cddbd v1.5.2PL0 Copyright (c) Steve Scherf et al.
# Submitted via: ExactAudioCopy v0.95b3
#
DISCID=66116408
DTITLE=Albert Collins and The Icebreakers - Red Rocks amphithetre, Morri
DTITLE=son, CO, 16.08.1992
DYEAR=1900
DGENRE=
TTITLE0=Watermelon man
TTITLE1=Ice man
TTITLE2=Lights are on but nobody's home
TTITLE3=Put the shoe on the other foot
TTITLE4=The things that I used to do
TTITLE5=Honey hush
TTITLE6=Same old thing
TTITLE7=Frosty
EXTD=
EXTT0=
EXTT1=
EXTT2=
EXTT3=
EXTT4=
EXTT5=
EXTT6=
EXTT7=
PLAYORDER=
